{"title":"The.Mechanic.2011.1080p.BluRay.X264-AMIABLE","uid":9127703,"size":7036920483,"categoryP":"video","categoryS":"hd___movies","magnet":"?xt=urn:btih:5fb8752e2b087664608a5317c9cb23871732060e&amp;dn=The.Mechanic.2011.1080p.BluRay.X264-AMIABLE&amp;tr=udp%3A%2F%2Ftracker.openbittorrent.com%3A80&amp;tr=udp%3A%2F%2Fopen.demonii.com%3A1337&amp;tr=udp%3A%2F%2Ftracker.coppersurfer.tk%3A6969&amp;tr=udp%3A%2F%2Fexodus.desync.com%3A6969","seeders":1,"leechers":1,"uploader":"nitro1111","files":-1,"time":1383256134,"description":"Format                                   : Matroska\nFormat version                           : Version 2\nFile size                                : 6.55 GiB\nDuration                                 : 1h 32mn\nOverall bit rate                         : 10.1 Mbps\nWriting application                      : x264.exe\nWriting library                          : mkv2rls v1.4 (date: 2011 mar 29)\n\nVideo\nID                                       : 1\nFormat                                   : AVC\nFormat/Info                              : Advanced Video Codec\nFormat profile                           : &lt;a class=&quot;__cf_email__&quot; href=&quot;/cdn-cgi/l/email-protection&quot; data-cfemail=&quot;90d8f9f7f8d0dca4bea1&quot;&gt;[email&amp;#160;protected]&lt;/a&gt;&lt;script cf-hash='f9e31' type=&quot;text/javascript&quot;&gt;\n/* &lt;![CDATA[ */!function(){try{var t=&quot;currentScript&quot;in document?document.currentScript:function(){for(var t=document.getElementsByTagName(&quot;script&quot;),e=t.length;e--;)if(t[e].getAttribute(&quot;cf-hash&quot;))return t[e]}();if(t&amp;&amp;t.previousSibling){var e,r,n,i,c=t.previousSibling,a=c.getAttribute(&quot;data-cfemail&quot;);if(a){for(e=&quot;&quot;,r=parseInt(a.substr(0,2),16),n=2;a.length-n;n+=2)i=parseInt(a.substr(n,2),16)^r,e+=String.fromCharCode(i);e=document.createTextNode(e),c.parentNode.replaceChild(e,c)}}}catch(u){}}();/* ]]&gt; */&lt;/script&gt;\nFormat settings, CABAC                   : Yes\nFormat settings, ReFrames                : 5 frames\nCodec ID                                 : V_MPEG4/ISO/AVC\nDuration                                 : 1h 32mn\nBit rate                                 : 8 614 Kbps\nWidth                                    : 1 920 pixels\nHeight                                   : 800 pixels\nDisplay aspect ratio                     : 2.40:1\nFrame rate mode                          : Constant\nFrame rate                               : 23.976 fps\nColor space                              : YUV\nChroma subsampling                       : 4:2:0\nBit depth                                : 8 bits\nScan type                                : Progressive\nBits/(Pixel*Frame)                       : 0.234\nStream size                              : 5.45 GiB (83%)\nWriting library                          : x264 core 115 r1947 b5a8ad7\nLanguage                                 : English\nDefault                                  : Yes\nForced                                   : No\n\nAudio\nID                                       : 2\nFormat                                   : DTS\nFormat/Info                              : Digital Theater Systems\nMode                                     : 16\nFormat settings, Endianness              : Big\nCodec ID                                 : A_DTS\nDuration                                 : 1h 32mn\nBit rate mode                            : Constant\nBit rate                                 : 1 509 Kbps\nChannel count                            : 6 channels\nChannel positions                        : Front: L C R, Side: L R, LFE\nSampling rate                            : 48.0 KHz\nBit depth                                : 24 bits\nCompression mode                         : Lossy\nStream size                              : 1 001 MiB (15%)\nLanguage                                 : English\nDefault                                  : Yes\nForced                                   : No\n\nThumbnails: &lt;a href=&quot;\nhttp://imageshack.com/a/img266/6078/qj2k.jpg&quot; rel=&quot;nofollow&quot; target=&quot;_NEW&quot;&gt;\nhttp://imageshack.com/a/img266/6078/qj2k.jpg&lt;/a&gt;\n","torrent":{"xt":"urn:btih:5fb8752e2b087664608a5317c9cb23871732060e","amp;dn":"The.Mechanic.2011.1080p.BluRay.X264-AMIABLE","amp;tr":["udp%3A%2F%2Ftracker.openbittorrent.com%3A80","udp%3A%2F%2Fopen.demonii.com%3A1337","udp%3A%2F%2Ftracker.coppersurfer.tk%3A6969","udp%3A%2F%2Fexodus.desync.com%3A6969"],"infoHash":"5fb8752e2b087664608a5317c9cb23871732060e","infoHashBuffer":{"type":"Buffer","data":[95,184,117,46,43,8,118,100,96,138,83,23,201,203,35,135,23,50,6,14]},"announce":[],"urlList":[]}}